<svg width="267" height="268" viewBox="0 0 267 268" fill="none" xmlns="http://www.w3.org/2000/svg">
<g id="error">
<g id="Fork">
<path id="Vector" d="M42.2217 70.7979L34.6408 75.77L113.591 196.145L121.172 191.173L42.2217 70.7979Z" fill="#ABA9C3"/>
<path id="Vector_2" d="M24.1738 25.4976L41.7134 52.2401C42.0531 52.758 42.1731 53.3896 42.0471 53.996C41.9211 54.6023 41.5593 55.1338 41.0415 55.4735C40.5236 55.8131 39.892 55.9332 39.2856 55.8071C38.6793 55.6811 38.1478 55.3194 37.8081 54.8015L17.6442 24.0578C14.9072 23.8292 12.1562 24.281 9.63609 25.373L31.6056 58.8696C31.945 59.3874 32.0649 60.0189 31.9388 60.6252C31.8127 61.2314 31.451 61.7627 30.9332 62.1023C30.4155 62.4419 29.784 62.562 29.1778 62.4361C28.5715 62.3102 28.0401 61.9486 27.7003 61.431L5.73079 27.9343C3.72517 29.8107 2.21467 32.1539 1.33381 34.7553L21.4978 65.499C21.8372 66.0169 21.9571 66.6484 21.831 67.2546C21.7049 67.8608 21.3432 68.3922 20.8254 68.7318C20.3076 69.0714 19.6762 69.1914 19.0699 69.0655C18.4637 68.9396 17.9322 68.5781 17.5925 68.0604L0.0528136 41.3179C-0.397681 48.7744 2.03343 57.6122 7.36141 65.7358C17.2637 80.8336 33.4162 87.7437 43.4392 81.17C53.4621 74.5962 53.56 57.0279 43.6577 41.93C38.3297 33.8065 31.1923 28.0554 24.1738 25.4976Z" fill="#ABA9C3"/>
</g>
<g id="spoon">
<path id="Vector_3" d="M114.374 56.0439H105.308L105.308 200H114.374L114.374 56.0439Z" fill="#ABA9C3"/>
<path id="Vector_4" d="M109.703 65.3846C121.69 65.3846 131.407 50.7478 131.407 32.6923C131.407 14.6368 121.69 0 109.703 0C97.7169 0 88 14.6368 88 32.6923C88 50.7478 97.7169 65.3846 109.703 65.3846Z" fill="#ABA9C3"/>
</g>
<path id="Vector_5" d="M138.217 226.342C193.446 226.342 238.217 223.773 238.217 220.604C238.217 217.435 193.446 214.867 138.217 214.867C82.9887 214.867 38.2171 217.435 38.2171 220.604C38.2171 223.773 82.9887 226.342 138.217 226.342Z" fill="#ABA9C3"/>
<g id="hat">
<path id="Vector_6" d="M197.357 220.52C159.881 213.765 121.499 213.765 84.0227 220.52C83.4274 220.628 82.8157 220.604 82.2307 220.449C81.6457 220.295 81.1018 220.014 80.6372 219.627C80.1726 219.239 79.7988 218.754 79.542 218.207C79.2852 217.659 79.1518 217.061 79.1512 216.456V165.11H202.228V216.456C202.227 217.061 202.094 217.659 201.837 218.207C201.581 218.754 201.207 219.239 200.742 219.627C200.278 220.014 199.734 220.295 199.149 220.449C198.564 220.604 197.952 220.628 197.357 220.52V220.52Z" fill="#F9A826"/>
<path id="Vector_7" d="M190.964 127.198C188.123 127.195 185.3 127.667 182.614 128.595C178.696 120.097 172.435 112.893 164.567 107.828C156.698 102.763 147.548 100.048 138.191 100.001C128.833 99.9533 119.656 102.576 111.737 107.561C103.818 112.546 97.4847 119.687 93.4811 128.145C89.5387 127.039 85.3883 126.897 81.3795 127.73C77.3707 128.563 73.6209 130.348 70.4459 132.933C67.271 135.519 64.7638 138.829 63.1358 142.586C61.5077 146.343 60.8063 150.436 61.0908 154.521C61.3753 158.606 62.6372 162.562 64.7703 166.057C66.9034 169.552 69.8452 172.483 73.3479 174.604C76.8506 176.724 80.8116 177.972 84.8972 178.241C88.9829 178.511 93.0734 177.795 96.8244 176.153C101.333 183.023 107.491 188.654 114.735 192.531C121.98 196.409 130.081 198.409 138.298 198.35C146.515 198.291 154.586 196.174 161.774 192.193C168.962 188.212 175.038 182.493 179.448 175.559C182.892 177.297 186.686 178.234 190.544 178.297C194.402 178.36 198.225 177.549 201.724 175.923C205.224 174.298 208.31 171.902 210.751 168.913C213.192 165.925 214.925 162.422 215.819 158.668C216.713 154.915 216.745 151.007 215.913 147.239C215.081 143.471 213.406 139.941 211.015 136.913C208.623 133.885 205.577 131.437 202.104 129.755C198.632 128.072 194.823 127.198 190.964 127.198V127.198Z" fill="#F9A826"/>
<path id="Vector_8" d="M89.0413 149.176H88.4919C88.4731 141.861 90.0921 134.634 93.2301 128.026L93.7267 128.261C90.6236 134.796 89.0227 141.942 89.0413 149.176V149.176Z" fill="#3F3D56"/>
<path id="Vector_9" d="M187.393 149.176H186.844C186.861 142.109 185.333 135.123 182.367 128.708L182.866 128.478C185.865 134.965 187.41 142.029 187.393 149.176V149.176Z" fill="#3F3D56"/>
<path id="Vector_10" d="M79.2175 189.003L79.0849 188.47C79.24 188.431 94.8551 184.596 117.739 182.693C138.86 180.937 170.675 180.513 202.295 188.47L202.161 189.003C170.618 181.066 138.873 181.488 117.796 183.24C94.9531 185.139 79.3721 188.965 79.2175 189.003Z" fill="#3F3D56"/>
<path id="Vector_11" d="M79.2175 196.421L79.0849 195.887C79.24 195.849 94.8551 192.014 117.739 190.111C138.86 188.354 170.675 187.931 202.295 195.887L202.161 196.42C170.618 188.484 138.873 188.906 117.796 190.657C94.9531 192.556 79.3721 196.382 79.2175 196.421Z" fill="#3F3D56"/>
<path id="Vector_12" d="M79.2175 203.838L79.0849 203.305C79.24 203.266 94.8551 199.431 117.739 197.528C138.86 195.772 170.675 195.348 202.295 203.305L202.161 203.838C170.618 195.901 138.873 196.323 117.796 198.075C94.9531 199.974 79.3721 203.8 79.2175 203.838Z" fill="#3F3D56"/>
</g>
<g id="pepper">
<path id="Vector_13" d="M22.1064 250.153C19.648 242.492 20.8857 235.482 25.8193 229.123C25.9736 228.922 26.1695 228.771 26.3859 228.686C26.6023 228.602 26.8307 228.587 27.0465 228.644L50.6212 235.056L47.5016 252.749L23.109 251.024C22.8841 251.007 22.6714 250.916 22.4945 250.762C22.3175 250.609 22.1832 250.398 22.1064 250.153V250.153Z" fill="#3F3D56"/>
<path id="Vector_14" d="M46.0943 243.295C45.2249 248.226 45.7336 252.437 47.2306 252.701C48.7275 252.965 50.6458 249.182 51.5152 244.251C52.3846 239.32 51.8759 235.109 50.3789 234.845C48.882 234.581 46.9637 238.365 46.0943 243.295Z" fill="#3F3D56"/>
<path id="Vector_15" d="M48.4858 250.932C46.5487 245.794 47.3428 241.29 50.8681 237.422L55.2048 238.186L52.8226 251.697L48.4858 250.932Z" fill="#F9A826"/>
<path id="Vector_16" d="M51.8454 244.559C51.1875 248.29 51.625 251.486 52.8226 251.697C54.0202 251.908 55.5243 249.055 56.1821 245.324C56.8399 241.593 56.4024 238.398 55.2049 238.186C54.0073 237.975 52.5032 240.828 51.8454 244.559Z" fill="#F9A826"/>
<path id="Vector_17" d="M53.957 245.263C53.8944 245.618 53.9649 245.928 54.1146 245.954C54.2643 245.981 54.4365 245.714 54.4991 245.359C54.5618 245.003 54.4912 244.694 54.3415 244.668C54.1918 244.641 54.0197 244.908 53.957 245.263Z" fill="#E6E6E6"/>
<path id="Vector_18" d="M53.4213 248.301C53.3587 248.656 53.4292 248.966 53.5789 248.992C53.7286 249.019 53.9008 248.752 53.9634 248.397C54.0261 248.041 53.9555 247.732 53.8058 247.706C53.6561 247.679 53.484 247.946 53.4213 248.301Z" fill="#E6E6E6"/>
<path id="Vector_19" d="M53.0492 246.669C52.9866 247.025 53.0571 247.334 53.2068 247.36C53.3565 247.387 53.5287 247.12 53.5913 246.765C53.654 246.41 53.5834 246.1 53.4337 246.074C53.284 246.047 53.1119 246.314 53.0492 246.669Z" fill="#E6E6E6"/>
<path id="Vector_20" d="M54.1205 240.594C54.0579 240.949 54.1284 241.258 54.2781 241.285C54.4278 241.311 54.6 241.044 54.6626 240.689C54.7253 240.334 54.6547 240.024 54.505 239.998C54.3553 239.972 54.1832 240.238 54.1205 240.594Z" fill="#E6E6E6"/>
<path id="Vector_21" d="M54.4927 242.225C54.43 242.581 54.5006 242.89 54.6503 242.917C54.8 242.943 54.9721 242.676 55.0348 242.321C55.0974 241.966 55.0268 241.656 54.8771 241.63C54.7274 241.603 54.5553 241.87 54.4927 242.225Z" fill="#E6E6E6"/>
<path id="Vector_22" d="M53.2649 243.575C53.2023 243.93 53.2728 244.24 53.4225 244.266C53.5722 244.293 53.7443 244.026 53.807 243.671C53.8697 243.315 53.7991 243.006 53.6494 242.979C53.4997 242.953 53.3276 243.22 53.2649 243.575Z" fill="#E6E6E6"/>
</g>
<g id="salt">
<path id="Vector_23" d="M260.699 234.922C265.249 240.339 266.082 246.279 263.199 252.741C263.109 252.946 262.966 253.122 262.783 253.25C262.601 253.378 262.387 253.454 262.164 253.47L237.811 255.002L235.704 240.012L259.491 234.51C259.711 234.46 259.94 234.473 260.153 234.545C260.366 234.618 260.555 234.749 260.699 234.922V234.922Z" fill="#3F3D56"/>
<path id="Vector_24" d="M239.765 247.155C239.178 242.977 237.482 239.762 235.977 239.974C234.471 240.185 233.727 243.744 234.314 247.921C234.901 252.099 236.598 255.314 238.103 255.102C239.608 254.891 240.352 251.333 239.765 247.155Z" fill="#3F3D56"/>
<path id="Vector_25" d="M235.286 241.738C238.613 245.29 239.149 249.106 236.895 253.185L232.534 253.798L230.926 242.351L235.286 241.738Z" fill="#F9A826"/>
<path id="Vector_26" d="M233.91 247.768C233.466 244.607 232.13 242.182 230.926 242.351C229.721 242.521 229.105 245.22 229.55 248.381C229.994 251.542 231.33 253.968 232.534 253.798C233.739 253.629 234.355 250.929 233.91 247.768Z" fill="#F9A826"/>
<path id="Vector_27" d="M231.692 247.802C231.649 247.501 231.493 247.274 231.342 247.296C231.192 247.317 231.104 247.578 231.147 247.879C231.189 248.18 231.345 248.407 231.496 248.386C231.646 248.365 231.734 248.103 231.692 247.802Z" fill="#E6E6E6"/>
<path id="Vector_28" d="M231.33 245.228C231.288 244.927 231.131 244.7 230.981 244.722C230.83 244.743 230.742 245.004 230.785 245.305C230.827 245.606 230.983 245.833 231.134 245.812C231.284 245.791 231.372 245.529 231.33 245.228Z" fill="#E6E6E6"/>
<path id="Vector_29" d="M232.154 246.425C232.112 246.124 231.956 245.897 231.805 245.918C231.655 245.939 231.567 246.2 231.609 246.502C231.651 246.803 231.808 247.029 231.958 247.008C232.109 246.987 232.197 246.726 232.154 246.425Z" fill="#E6E6E6"/>
<path id="Vector_30" d="M232.878 251.573C232.835 251.272 232.679 251.045 232.529 251.066C232.378 251.087 232.29 251.348 232.333 251.649C232.375 251.95 232.531 252.177 232.682 252.156C232.832 252.135 232.92 251.874 232.878 251.573Z" fill="#E6E6E6"/>
<path id="Vector_31" d="M232.053 250.376C232.011 250.075 231.855 249.848 231.704 249.869C231.554 249.891 231.466 250.152 231.508 250.453C231.551 250.754 231.707 250.981 231.857 250.96C232.008 250.938 232.096 250.677 232.053 250.376Z" fill="#E6E6E6"/>
<path id="Vector_32" d="M232.838 248.954C232.795 248.653 232.639 248.426 232.489 248.447C232.338 248.468 232.25 248.729 232.293 249.03C232.335 249.331 232.491 249.558 232.642 249.537C232.792 249.516 232.88 249.255 232.838 248.954Z" fill="#E6E6E6"/>
<g id="man">
<path id="Vector_33" d="M185.612 162.418L178.955 160.155L185.346 127.537L180.952 127.138C176.668 130.425 170.963 131.713 163.645 130.732L175.361 148.439L169.387 152.656L150.33 129.797C149.471 128.767 149 127.468 149 126.127C149 124.883 149.404 123.673 150.152 122.68C150.9 121.686 151.951 120.963 153.146 120.618L173.497 114.756L197.328 117.419C200.931 122.912 201.071 126.732 195.587 127.834L185.612 162.418Z" fill="#2F2E41"/>
<path id="Vector_34" d="M178.799 175.107C178.111 175.064 177.442 174.858 176.849 174.508C176.255 174.158 175.752 173.673 175.381 173.091C175.009 172.51 174.781 171.85 174.713 171.164C174.645 170.478 174.74 169.785 174.989 169.143L178.299 160.633C179.98 157.449 182.287 157.847 185.011 160.633L186.342 164.538C186.452 164.86 186.496 165.2 186.47 165.539C186.445 165.878 186.352 166.208 186.195 166.51L182.97 172.746C182.579 173.502 181.976 174.128 181.235 174.547C180.495 174.966 179.648 175.161 178.799 175.107V175.107Z" fill="#2F2E41"/>
<path id="Vector_35" d="M170.196 163.964C169.508 163.92 168.839 163.715 168.246 163.365C167.652 163.014 167.149 162.529 166.778 161.948C166.407 161.367 166.178 160.706 166.11 160.02C166.042 159.334 166.137 158.642 166.386 157.999L169.696 149.489C171.377 146.305 173.684 146.704 176.408 149.489L177.739 153.395C177.849 153.716 177.893 154.056 177.867 154.395C177.842 154.734 177.749 155.064 177.593 155.366L174.367 161.602C173.976 162.358 173.373 162.984 172.633 163.403C171.892 163.823 171.045 164.017 170.196 163.964Z" fill="#2F2E41"/>
<path id="Vector_36" d="M174.429 83.603C178.546 83.603 181.884 80.2651 181.884 76.1475C181.884 72.03 178.546 68.692 174.429 68.692C170.311 68.692 166.973 72.03 166.973 76.1475C166.973 80.2651 170.311 83.603 174.429 83.603Z" fill="#FFB9B9"/>
<path id="Vector_37" d="M186.011 86.6652L175.76 91.9905L173.63 82.4048L180.686 78.0114L186.011 86.6652Z" fill="#FFB9B9"/>
<path id="Vector_38" d="M198.393 118.75C188.164 115.661 178.882 114.06 172.165 116.487C174.481 109.974 170.207 100.028 165.509 89.8604C167.536 87.2101 170.768 86.1836 174.429 85.7332C178.433 88.641 181.226 86.7747 183.349 82.2717C187.979 82.0859 192.441 83.7255 196.795 86.532C193.391 97.4348 194.004 108.171 198.393 118.75Z" fill="#3F3D56"/>
<path id="Vector_39" d="M172.032 118.085C170.417 119.037 168.926 120.641 167.506 122.611C165.105 121.142 162.992 119.469 161.328 117.479C160.163 116.068 159.369 114.388 159.017 112.593C158.666 110.797 158.768 108.942 159.314 107.196L163.864 92.4097C164.242 91.1816 164.976 90.0935 165.973 89.2832L166.574 88.7953L172.565 100.112L166.574 111.295C167.333 113.332 169.572 115.685 172.032 118.085Z" fill="#3F3D56"/>
<path id="Vector_40" d="M174.094 129.358C173.551 129.606 172.958 129.724 172.361 129.702C171.765 129.681 171.181 129.521 170.657 129.236C170.133 128.95 169.683 128.546 169.341 128.057C169 127.567 168.778 127.004 168.691 126.414L167.701 119.635L171.163 117.771L175.556 123.522C175.907 123.981 176.15 124.514 176.266 125.08C176.383 125.646 176.371 126.231 176.231 126.792C176.09 127.353 175.825 127.875 175.455 128.319C175.085 128.763 174.62 129.119 174.094 129.358V129.358Z" fill="#FFB9B9"/>
<path id="Vector_41" d="M181.951 75.8213L180.678 75.8591L177.147 70.8571C172.622 71.3248 168.915 73.2906 165.777 76.3017L165.459 74.1809C165.156 72.1585 165.639 70.0967 166.809 68.4196C167.98 66.7425 169.748 65.5777 171.751 65.1647L171.751 65.1647C172.803 64.9478 173.888 64.9451 174.941 65.1568C175.994 65.3685 176.994 65.7903 177.88 66.3969C178.767 67.0035 179.522 67.7826 180.101 68.6875C180.68 69.5925 181.07 70.6048 181.249 71.664L181.951 75.8213Z" fill="#2F2E41"/>
<path id="Vector_42" d="M167.634 122.614C167.387 122.071 167.269 121.477 167.29 120.881C167.311 120.284 167.471 119.701 167.757 119.177C168.042 118.653 168.446 118.202 168.936 117.861C169.426 117.52 169.988 117.297 170.579 117.211L177.358 116.221L179.221 119.682L173.47 124.075C173.011 124.426 172.479 124.669 171.912 124.786C171.346 124.903 170.761 124.891 170.2 124.75C169.64 124.61 169.118 124.345 168.673 123.975C168.229 123.605 167.874 123.14 167.634 122.614V122.614Z" fill="#FFB9B9"/>
<path id="Vector_43" d="M199.684 116.448C193.235 116.949 186.193 118.96 178.822 121.812C178.731 119.624 177.937 117.524 176.559 115.821C183.254 114.058 189.329 111.989 193.067 108.765L190.804 91.7242L195.73 86.1326L196.58 86.5759C197.285 86.9425 197.906 87.4535 198.402 88.0755C198.897 88.6976 199.256 89.4168 199.456 90.1866C201.536 98.277 202.459 106.029 201.824 113.323C201.906 114.015 201.735 114.713 201.341 115.288C200.947 115.862 200.359 116.274 199.684 116.448V116.448Z" fill="#3F3D56"/>
</g>
</g>
</g>
</svg>
